<svg width="126" height="126" viewBox="0 0 126 126" fill="none" xmlns="http://www.w3.org/2000/svg">
<g clip-path="url(#clip0_62_241)">
<mask id="mask0_62_241" style="mask-type:luminance" maskUnits="userSpaceOnUse" x="0" y="-1" width="126" height="127">
<path d="M46.0113 125.705L125.705 79.6936L79.6938 -0.000221069L4.9774e-05 46.011L46.0113 125.705Z" fill="white"/>
</mask>
<g mask="url(#mask0_62_241)">
<path fill-rule="evenodd" clip-rule="evenodd" d="M82.4612 38.9041C82.6452 39.7244 82.808 40.4301 82.8965 40.8026C83.4373 43.0679 84.0992 48.8576 85.9276 52.7219C87.3221 55.6707 89.3983 57.5108 92.3614 56.6512C95.0555 55.8699 96.6086 53.0609 97.2265 49.2587C98.5559 41.0754 95.7499 28.2638 93.9024 24.6122C93.7007 24.2137 93.2158 24.0539 92.8172 24.2558C92.4201 24.4566 92.2609 24.9416 92.4626 25.3401C94.2344 28.8448 96.9087 41.1442 95.6331 49.0003C95.1341 52.0708 94.0872 54.4698 91.9112 55.1005C89.7635 55.724 88.398 54.1697 87.3872 52.0321C85.6069 48.2716 84.9925 42.6333 84.4673 40.4272C84.1367 39.0445 83.0261 33.7354 82.8215 33.3032C82.5652 32.7619 82.0966 32.8019 81.9437 32.8266C81.8255 32.8456 81.2415 32.9783 81.2536 33.7121C81.4199 44.1764 74.4319 60.3492 63.4842 71.5078C52.6327 82.5689 37.8351 88.7012 22.1771 79.1301C21.7964 78.8986 21.2989 79.019 21.0662 79.3977C20.8344 79.7785 20.9546 80.2761 21.3354 80.5076C37.7417 90.5359 53.2679 84.2267 64.6363 72.6397C74.2181 62.8743 80.8055 49.3573 82.4612 38.9041Z" fill="white"/>
<path fill-rule="evenodd" clip-rule="evenodd" d="M22.6368 80.2061C24.5232 79.9491 26.4095 79.7538 28.2771 79.351C33.2526 78.2772 38.1952 76.1083 42.1024 72.8174C42.4437 72.5286 42.4862 72.0196 42.2002 71.6791C41.9114 71.338 41.4024 71.2955 41.0618 71.5815C37.3556 74.7067 32.6575 76.7538 27.9369 77.7717C25.799 78.2318 23.6336 78.4166 21.4747 78.7387C21.3672 78.7564 20.4248 78.8675 20.2323 78.9454C19.7832 79.1252 19.7117 79.4862 19.7001 79.6575C19.6886 79.8005 19.7091 79.9746 19.8118 80.1643C19.8969 80.3201 20.1276 80.577 20.5094 80.8552C21.7293 81.7506 24.8743 83.4297 25.3614 83.7603C30.9453 87.5452 35.5047 92.0041 40.4223 96.5783C40.7498 96.8806 41.2616 96.8629 41.5651 96.5365C41.8686 96.2109 41.8489 95.7005 41.5231 95.3969C36.5436 90.7639 31.9202 86.2555 26.2679 82.4252C25.9339 82.1973 24.0144 81.0357 22.6368 80.2061Z" fill="white"/>
</g>
</g>
<defs>
<clipPath id="clip0_62_241">
<rect width="126" height="126" fill="white"/>
</clipPath>
</defs>
</svg>
