<svg width="174" height="373" viewBox="0 0 174 373" fill="none" xmlns="http://www.w3.org/2000/svg">
<path d="M0.91538 148.818C30.7783 139.5 62.2305 133.85 92.8787 143.755C111.201 149.676 128.4 162.213 137.219 179.646C143.517 192.095 143.658 203.334 139.368 216.345C131.61 210.857 123.904 205.226 115.925 200.064C109.7 196.036 68.8284 171.284 63.4186 171.659L61.6743 172.89L62.5163 176.238C65.3855 179.13 85.1786 188.749 90.636 191.831C104.604 199.721 123.603 211.193 135.938 221.35C131.62 225.331 127.303 228.565 121.727 230.574C103.783 237.049 81.4489 233.17 64.6346 225.169C34.0006 210.592 11.8996 180.229 0.91538 148.818Z" fill="#EAE3CE"/>
<path d="M86.7482 0.535831C103.487 7.22229 119.655 17.1611 133.669 28.4534C153.117 44.124 170.738 65.82 173.385 91.5214C174.967 106.892 171.358 124.176 161.017 136.06C158.603 138.835 153.338 142.388 151.784 144.526L151.538 144.939C145.571 129.901 139.336 114.962 133.322 99.9403C129.921 91.4457 126.911 82.2998 122.88 74.1074C122.402 73.1351 121.936 72.5617 121.039 71.9175L118.096 72.3084C116.97 74.6127 118.064 77.7304 118.866 80.0045L146.13 147.453C137.856 148.961 130.249 149.149 122.124 146.646C107.367 142.1 95.6643 131.846 88.481 118.256C69.9019 83.1079 75.5763 37.1538 86.7482 0.535831Z" fill="#EAE3CE"/>
<path d="M46.5905 289.752C83.5525 270.417 125.885 258.235 167.786 263.328L165.061 315.912C153.063 312.794 74.7532 292.192 68.9383 294.778L68.0055 296.014C68.1953 297.354 68.3492 297.797 69.513 298.567C73.5162 301.216 98.1578 305.385 104.238 306.739C117.05 309.588 129.778 312.653 142.514 315.832C149.916 317.676 157.564 319.298 164.765 321.831C164.735 339.582 161.276 355.939 170.623 372.21L146.309 368.078C99.0543 356.856 71.3574 330.026 46.5905 289.752Z" fill="#EAE3CE"/>
</svg>
