<svg width="201" height="312" viewBox="0 0 201 312" fill="none" xmlns="http://www.w3.org/2000/svg">
<path d="M7.21511 44.9817C16.2574 37.1584 25.0988 29.5086 35.3392 23.2186C65.0626 4.9765 102.669 -1.48776 137.073 1.02255C158.846 2.61203 179.728 6.7184 200.365 13.9184C191.04 33.7259 181.174 52.9274 170.204 71.8762C148.107 110.036 121.554 147.32 78.3144 163.045C67.7604 166.88 57.7732 168.347 46.5666 168.046C42.329 167.934 37.977 167.477 33.7452 167.605C38.2747 152.71 37.9693 135.402 37.1801 119.951C71.4739 83.0843 119.834 57.3058 162.066 30.0477L162.089 29.4643C152.752 32.7713 143.351 38.1207 134.499 42.6185C95.9746 62.21 67.6814 80.8027 35.969 110.125C31.0935 87.9063 22.3397 62.4148 7.21511 44.9817Z" fill="#EAE3CE"/>
<path d="M29.8736 181.689L30.9136 181.813C40.1445 182.794 49.5516 180.69 58.921 182.115C101.166 188.519 138.908 218.272 170.61 245.19C133.111 279.78 90.591 305.44 38.9808 310.37C26.2025 311.591 13.5063 310.196 0.835716 311.09L16.1417 245.23C45.2766 244.462 74.7695 247.244 103.787 249.588C109.411 250.039 134.592 254.586 137.932 252.353L137.261 250.482C136.42 249.505 135.33 248.73 134.112 248.295C129.396 246.61 120.872 246.416 115.703 245.775C94.1156 243.106 72.2894 241.229 50.5706 240.067C39.5329 239.474 28.4777 239.367 17.4422 238.738C18.1171 231.481 20.0954 224.263 21.5855 217.139C24.0705 205.256 26.3205 193.312 29.8736 181.689Z" fill="#EAE3CE"/>
</svg>
