<svg width="402" height="16" viewBox="0 0 402 16" fill="none" xmlns="http://www.w3.org/2000/svg">
<path d="M401.707 8.70711C402.098 8.31658 402.098 7.68342 401.707 7.29289L395.343 0.928932C394.953 0.538408 394.319 0.538408 393.929 0.928932C393.538 1.31946 393.538 1.95262 393.929 2.34315L399.586 8L393.929 13.6569C393.538 14.0474 393.538 14.6805 393.929 15.0711C394.319 15.4616 394.953 15.4616 395.343 15.0711L401.707 8.70711ZM0 9H2.005V7H0V9ZM6.015 9H10.025V7H6.015V9ZM14.035 9H18.045V7H14.035V9ZM22.055 9H26.065V7H22.055V9ZM30.075 9H34.085V7H30.075V9ZM38.095 9H42.105V7H38.095V9ZM46.115 9H50.125V7H46.115V9ZM54.135 9H58.145V7H54.135V9ZM62.155 9H66.165V7H62.155V9ZM70.175 9H74.185V7H70.175V9ZM78.195 9H82.205V7H78.195V9ZM86.215 9H90.225V7H86.215V9ZM94.235 9H98.245V7H94.235V9ZM102.255 9H106.265V7H102.255V9ZM110.275 9H114.285V7H110.275V9ZM118.295 9H122.305V7H118.295V9ZM126.315 9H130.325V7H126.315V9ZM134.335 9H138.345V7H134.335V9ZM142.355 9H146.365V7H142.355V9ZM150.375 9H154.385V7H150.375V9ZM158.395 9H162.405V7H158.395V9ZM166.415 9H170.425V7H166.415V9ZM174.435 9H178.445V7H174.435V9ZM182.455 9H186.465V7H182.455V9ZM190.475 9H194.485V7H190.475V9ZM198.495 9H202.505V7H198.495V9ZM206.515 9H210.525V7H206.515V9ZM214.535 9H218.545V7H214.535V9ZM222.555 9H226.565V7H222.555V9ZM230.575 9H234.585V7H230.575V9ZM238.595 9H242.605V7H238.595V9ZM246.615 9H250.625V7H246.615V9ZM254.635 9H258.645V7H254.635V9ZM262.655 9H266.665V7H262.655V9ZM270.675 9H274.685V7H270.675V9ZM278.695 9H282.705V7H278.695V9ZM286.715 9H290.725V7H286.715V9ZM294.735 9H298.745V7H294.735V9ZM302.755 9H306.765V7H302.755V9ZM310.775 9H314.785V7H310.775V9ZM318.795 9H322.805V7H318.795V9ZM326.815 9H330.825V7H326.815V9ZM334.835 9H338.845V7H334.835V9ZM342.855 9H346.865V7H342.855V9ZM350.875 9H354.885V7H350.875V9ZM358.895 9H362.905V7H358.895V9ZM366.915 9H370.925V7H366.915V9ZM374.935 9H378.945V7H374.935V9ZM382.955 9H386.965V7H382.955V9ZM390.975 9H394.985V7H390.975V9ZM398.995 9H401V7H398.995V9ZM401.707 8.70711C402.098 8.31658 402.098 7.68342 401.707 7.29289L395.343 0.928932C394.953 0.538408 394.319 0.538408 393.929 0.928932C393.538 1.31946 393.538 1.95262 393.929 2.34315L399.586 8L393.929 13.6569C393.538 14.0474 393.538 14.6805 393.929 15.0711C394.319 15.4616 394.953 15.4616 395.343 15.0711L401.707 8.70711ZM0 9H2.005V7H0V9ZM6.015 9H10.025V7H6.015V9ZM14.035 9H18.045V7H14.035V9ZM22.055 9H26.065V7H22.055V9ZM30.075 9H34.085V7H30.075V9ZM38.095 9H42.105V7H38.095V9ZM46.115 9H50.125V7H46.115V9ZM54.135 9H58.145V7H54.135V9ZM62.155 9H66.165V7H62.155V9ZM70.175 9H74.185V7H70.175V9ZM78.195 9H82.205V7H78.195V9ZM86.215 9H90.225V7H86.215V9ZM94.235 9H98.245V7H94.235V9ZM102.255 9H106.265V7H102.255V9ZM110.275 9H114.285V7H110.275V9ZM118.295 9H122.305V7H118.295V9ZM126.315 9H130.325V7H126.315V9ZM134.335 9H138.345V7H134.335V9ZM142.355 9H146.365V7H142.355V9ZM150.375 9H154.385V7H150.375V9ZM158.395 9H162.405V7H158.395V9ZM166.415 9H170.425V7H166.415V9ZM174.435 9H178.445V7H174.435V9ZM182.455 9H186.465V7H182.455V9ZM190.475 9H194.485V7H190.475V9ZM198.495 9H202.505V7H198.495V9ZM206.515 9H210.525V7H206.515V9ZM214.535 9H218.545V7H214.535V9ZM222.555 9H226.565V7H222.555V9ZM230.575 9H234.585V7H230.575V9ZM238.595 9H242.605V7H238.595V9ZM246.615 9H250.625V7H246.615V9ZM254.635 9H258.645V7H254.635V9ZM262.655 9H266.665V7H262.655V9ZM270.675 9H274.685V7H270.675V9ZM278.695 9H282.705V7H278.695V9ZM286.715 9H290.725V7H286.715V9ZM294.735 9H298.745V7H294.735V9ZM302.755 9H306.765V7H302.755V9ZM310.775 9H314.785V7H310.775V9ZM318.795 9H322.805V7H318.795V9ZM326.815 9H330.825V7H326.815V9ZM334.835 9H338.845V7H334.835V9ZM342.855 9H346.865V7H342.855V9ZM350.875 9H354.885V7H350.875V9ZM358.895 9H362.905V7H358.895V9ZM366.915 9H370.925V7H366.915V9ZM374.935 9H378.945V7H374.935V9ZM382.955 9H386.965V7H382.955V9ZM390.975 9H394.985V7H390.975V9ZM398.995 9H401V7H398.995V9Z" fill="black"/>
</svg>
