<svg width="406" height="16" viewBox="0 0 406 16" fill="none" xmlns="http://www.w3.org/2000/svg">
<path d="M0.666667 8C0.666667 10.9455 3.05448 13.3333 6 13.3333C8.94552 13.3333 11.3333 10.9455 11.3333 8C11.3333 5.05448 8.94552 2.66667 6 2.66667C3.05448 2.66667 0.666667 5.05448 0.666667 8ZM964.707 8.70711C965.098 8.31658 965.098 7.68342 964.707 7.29289L958.343 0.928932C957.953 0.538408 957.319 0.538408 956.929 0.928932C956.538 1.31946 956.538 1.95262 956.929 2.34315L962.586 8L956.929 13.6569C956.538 14.0474 956.538 14.6805 956.929 15.0711C957.319 15.4616 957.953 15.4616 958.343 15.0711L964.707 8.70711ZM6 9H7.99583V7H6V9ZM11.9875 9H15.9792V7H11.9875V9ZM19.9708 9H23.9625V7H19.9708V9ZM27.9542 9H31.9458V7H27.9542V9ZM35.9375 9H39.9292V7H35.9375V9ZM43.9208 9H47.9125V7H43.9208V9ZM51.9042 9H55.8958V7H51.9042V9ZM59.8875 9H63.8792V7H59.8875V9ZM67.8708 9H71.8625V7H67.8708V9ZM75.8542 9H79.8458V7H75.8542V9ZM83.8375 9H87.8292V7H83.8375V9ZM91.8208 9H95.8125V7H91.8208V9ZM99.8042 9H103.796V7H99.8042V9ZM107.788 9H111.779V7H107.788V9ZM115.771 9H119.763V7H115.771V9ZM123.754 9H127.746V7H123.754V9ZM131.738 9H135.729V7H131.738V9ZM139.721 9H143.713V7H139.721V9ZM147.704 9H151.696V7H147.704V9ZM155.688 9H159.679V7H155.688V9ZM163.671 9H167.663V7H163.671V9ZM171.654 9H175.646V7H171.654V9ZM179.638 9H183.629V7H179.638V9ZM187.621 9H191.613V7H187.621V9ZM195.604 9H199.596V7H195.604V9ZM203.588 9H207.579V7H203.588V9ZM211.571 9H215.563V7H211.571V9ZM219.554 9H223.546V7H219.554V9ZM227.538 9H231.529V7H227.538V9ZM235.521 9H239.513V7H235.521V9ZM243.504 9H247.496V7H243.504V9ZM251.488 9H255.479V7H251.488V9ZM259.471 9H263.463V7H259.471V9ZM267.454 9H271.446V7H267.454V9ZM275.438 9H279.429V7H275.438V9ZM283.421 9H287.413V7H283.421V9ZM291.404 9H295.396V7H291.404V9ZM299.388 9H303.379V7H299.388V9ZM307.371 9H311.363V7H307.371V9ZM315.354 9H319.346V7H315.354V9ZM323.338 9H327.329V7H323.338V9ZM331.321 9H335.313V7H331.321V9ZM339.304 9H343.296V7H339.304V9ZM347.288 9H351.279V7H347.288V9ZM355.271 9H359.263V7H355.271V9ZM363.254 9H367.246V7H363.254V9ZM371.238 9H375.229V7H371.238V9ZM379.221 9H383.213V7H379.221V9ZM387.204 9H391.196V7H387.204V9ZM395.188 9H399.179V7H395.188V9ZM403.171 9H407.163V7H403.171V9ZM411.154 9H415.146V7H411.154V9ZM419.138 9H423.129V7H419.138V9ZM427.121 9H431.113V7H427.121V9ZM435.104 9H439.096V7H435.104V9ZM443.088 9H447.079V7H443.088V9ZM451.071 9H455.063V7H451.071V9ZM459.054 9H463.046V7H459.054V9ZM467.038 9H471.029V7H467.038V9ZM475.021 9H479.013V7H475.021V9ZM483.004 9H486.996V7H483.004V9ZM490.988 9H494.979V7H490.988V9ZM498.971 9H502.963V7H498.971V9ZM506.954 9H510.946V7H506.954V9ZM514.938 9H518.929V7H514.938V9ZM522.921 9H526.913V7H522.921V9ZM530.904 9H534.896V7H530.904V9ZM538.888 9H542.879V7H538.888V9ZM546.871 9H550.862V7H546.871V9ZM554.854 9H558.846V7H554.854V9ZM562.837 9H566.829V7H562.837V9ZM570.821 9H574.812V7H570.821V9ZM578.804 9H582.796V7H578.804V9ZM586.787 9H590.779V7H586.787V9ZM594.771 9H598.762V7H594.771V9ZM602.754 9H606.745V7H602.754V9ZM610.737 9H614.729V7H610.737V9ZM618.72 9H622.712V7H618.72V9ZM626.704 9H630.695V7H626.704V9ZM634.687 9H638.679V7H634.687V9ZM642.67 9H646.662V7H642.67V9ZM650.653 9H654.645V7H650.653V9ZM658.637 9H662.628V7H658.637V9ZM666.62 9H670.612V7H666.62V9ZM674.603 9H678.595V7H674.603V9ZM682.587 9H686.578V7H682.587V9ZM690.57 9H694.561V7H690.57V9ZM698.553 9H702.545V7H698.553V9ZM706.536 9H710.528V7H706.536V9ZM714.52 9H718.511V7H714.52V9ZM722.503 9H726.495V7H722.503V9ZM730.486 9H734.478V7H730.486V9ZM738.469 9H742.461V7H738.469V9ZM746.453 9H750.444V7H746.453V9ZM754.436 9H758.428V7H754.436V9ZM762.419 9H766.411V7H762.419V9ZM770.403 9H774.394V7H770.403V9ZM778.386 9H782.378V7H778.386V9ZM786.369 9H790.361V7H786.369V9ZM794.352 9H798.344V7H794.352V9ZM802.336 9H806.327V7H802.336V9ZM810.319 9H814.311V7H810.319V9ZM818.302 9H822.294V7H818.302V9ZM826.286 9H830.277V7H826.286V9ZM834.269 9H838.26V7H834.269V9ZM842.252 9H846.244V7H842.252V9ZM850.235 9H854.227V7H850.235V9ZM858.219 9H862.21V7H858.219V9ZM866.202 9H870.194V7H866.202V9ZM874.185 9H878.177V7H874.185V9ZM882.168 9H886.16V7H882.168V9ZM890.152 9H894.143V7H890.152V9ZM898.135 9H902.127V7H898.135V9ZM906.118 9H910.11V7H906.118V9ZM914.102 9H918.093V7H914.102V9ZM922.085 9H926.076V7H922.085V9ZM930.068 9H934.06V7H930.068V9ZM938.051 9H942.043V7H938.051V9ZM946.035 9H950.026V7H946.035V9ZM954.018 9H958.01V7H954.018V9ZM962.001 9H964V7H962.001V9ZM0.666667 8C0.666667 10.9455 3.05448 13.3333 6 13.3333C8.94552 13.3333 11.3333 10.9455 11.3333 8C11.3333 5.05448 8.94552 2.66667 6 2.66667C3.05448 2.66667 0.666667 5.05448 0.666667 8ZM964.707 8.70711C965.098 8.31658 965.098 7.68342 964.707 7.29289L958.343 0.928932C957.953 0.538408 957.319 0.538408 956.929 0.928932C956.538 1.31946 956.538 1.95262 956.929 2.34315L962.586 8L956.929 13.6569C956.538 14.0474 956.538 14.6805 956.929 15.0711C957.319 15.4616 957.953 15.4616 958.343 15.0711L964.707 8.70711ZM6 9H7.99583V7H6V9ZM11.9875 9H15.9792V7H11.9875V9ZM19.9708 9H23.9625V7H19.9708V9ZM27.9542 9H31.9458V7H27.9542V9ZM35.9375 9H39.9292V7H35.9375V9ZM43.9208 9H47.9125V7H43.9208V9ZM51.9042 9H55.8958V7H51.9042V9ZM59.8875 9H63.8792V7H59.8875V9ZM67.8708 9H71.8625V7H67.8708V9ZM75.8542 9H79.8458V7H75.8542V9ZM83.8375 9H87.8292V7H83.8375V9ZM91.8208 9H95.8125V7H91.8208V9ZM99.8042 9H103.796V7H99.8042V9ZM107.788 9H111.779V7H107.788V9ZM115.771 9H119.763V7H115.771V9ZM123.754 9H127.746V7H123.754V9ZM131.738 9H135.729V7H131.738V9ZM139.721 9H143.713V7H139.721V9ZM147.704 9H151.696V7H147.704V9ZM155.688 9H159.679V7H155.688V9ZM163.671 9H167.663V7H163.671V9ZM171.654 9H175.646V7H171.654V9ZM179.638 9H183.629V7H179.638V9ZM187.621 9H191.613V7H187.621V9ZM195.604 9H199.596V7H195.604V9ZM203.588 9H207.579V7H203.588V9ZM211.571 9H215.563V7H211.571V9ZM219.554 9H223.546V7H219.554V9ZM227.538 9H231.529V7H227.538V9ZM235.521 9H239.513V7H235.521V9ZM243.504 9H247.496V7H243.504V9ZM251.488 9H255.479V7H251.488V9ZM259.471 9H263.463V7H259.471V9ZM267.454 9H271.446V7H267.454V9ZM275.438 9H279.429V7H275.438V9ZM283.421 9H287.413V7H283.421V9ZM291.404 9H295.396V7H291.404V9ZM299.388 9H303.379V7H299.388V9ZM307.371 9H311.363V7H307.371V9ZM315.354 9H319.346V7H315.354V9ZM323.338 9H327.329V7H323.338V9ZM331.321 9H335.313V7H331.321V9ZM339.304 9H343.296V7H339.304V9ZM347.288 9H351.279V7H347.288V9ZM355.271 9H359.263V7H355.271V9ZM363.254 9H367.246V7H363.254V9ZM371.238 9H375.229V7H371.238V9ZM379.221 9H383.213V7H379.221V9ZM387.204 9H391.196V7H387.204V9ZM395.188 9H399.179V7H395.188V9ZM403.171 9H407.163V7H403.171V9ZM411.154 9H415.146V7H411.154V9ZM419.138 9H423.129V7H419.138V9ZM427.121 9H431.113V7H427.121V9ZM435.104 9H439.096V7H435.104V9ZM443.088 9H447.079V7H443.088V9ZM451.071 9H455.063V7H451.071V9ZM459.054 9H463.046V7H459.054V9ZM467.038 9H471.029V7H467.038V9ZM475.021 9H479.013V7H475.021V9ZM483.004 9H486.996V7H483.004V9ZM490.988 9H494.979V7H490.988V9ZM498.971 9H502.963V7H498.971V9ZM506.954 9H510.946V7H506.954V9ZM514.938 9H518.929V7H514.938V9ZM522.921 9H526.913V7H522.921V9ZM530.904 9H534.896V7H530.904V9ZM538.888 9H542.879V7H538.888V9ZM546.871 9H550.862V7H546.871V9ZM554.854 9H558.846V7H554.854V9ZM562.837 9H566.829V7H562.837V9ZM570.821 9H574.812V7H570.821V9ZM578.804 9H582.796V7H578.804V9ZM586.787 9H590.779V7H586.787V9ZM594.771 9H598.762V7H594.771V9ZM602.754 9H606.745V7H602.754V9ZM610.737 9H614.729V7H610.737V9ZM618.72 9H622.712V7H618.72V9ZM626.704 9H630.695V7H626.704V9ZM634.687 9H638.679V7H634.687V9ZM642.67 9H646.662V7H642.67V9ZM650.653 9H654.645V7H650.653V9ZM658.637 9H662.628V7H658.637V9ZM666.62 9H670.612V7H666.62V9ZM674.603 9H678.595V7H674.603V9ZM682.587 9H686.578V7H682.587V9ZM690.57 9H694.561V7H690.57V9ZM698.553 9H702.545V7H698.553V9ZM706.536 9H710.528V7H706.536V9ZM714.52 9H718.511V7H714.52V9ZM722.503 9H726.495V7H722.503V9ZM730.486 9H734.478V7H730.486V9ZM738.469 9H742.461V7H738.469V9ZM746.453 9H750.444V7H746.453V9ZM754.436 9H758.428V7H754.436V9ZM762.419 9H766.411V7H762.419V9ZM770.403 9H774.394V7H770.403V9ZM778.386 9H782.378V7H778.386V9ZM786.369 9H790.361V7H786.369V9ZM794.352 9H798.344V7H794.352V9ZM802.336 9H806.327V7H802.336V9ZM810.319 9H814.311V7H810.319V9ZM818.302 9H822.294V7H818.302V9ZM826.286 9H830.277V7H826.286V9ZM834.269 9H838.26V7H834.269V9ZM842.252 9H846.244V7H842.252V9ZM850.235 9H854.227V7H850.235V9ZM858.219 9H862.21V7H858.219V9ZM866.202 9H870.194V7H866.202V9ZM874.185 9H878.177V7H874.185V9ZM882.168 9H886.16V7H882.168V9ZM890.152 9H894.143V7H890.152V9ZM898.135 9H902.127V7H898.135V9ZM906.118 9H910.11V7H906.118V9ZM914.102 9H918.093V7H914.102V9ZM922.085 9H926.076V7H922.085V9ZM930.068 9H934.06V7H930.068V9ZM938.051 9H942.043V7H938.051V9ZM946.035 9H950.026V7H946.035V9ZM954.018 9H958.01V7H954.018V9ZM962.001 9H964V7H962.001V9Z" fill="black"/>
</svg>
