<svg width="20" height="18" viewBox="0 0 20 18" fill="none" xmlns="http://www.w3.org/2000/svg">
<path d="M13.5 0C11.0147 0 9 2.015 9 4.5C9 6.985 11.0147 9 13.5 9C15.9853 9 18 6.985 18 4.5C18 2.015 15.9853 0 13.5 0ZM6 1C3.7909 1 2 2.791 2 5C2 7.209 3.7909 9 6 9C6.8294 9 7.5865 8.77203 8.2528 8.30603C6.544 5.76603 6.7862 3.334 7.7175 1.375C7.1856 1.123 6.6014 1 6 1ZM3.0625 10.344C1.2284 11.101 0 12.956 0 15V17C0 17.552 0.4477 18 1 18L5.1528 18.002C4.9188 17.242 4.9876 16.01 5.003 15.013C5.0355 12.896 5.911 11.386 6.2539 10.988C5.6237 10.983 4.8674 10.83 4.3125 10.594C4.1785 10.537 4.1007 10.492 3.8438 10.375C3.5919 10.26 3.3183 10.238 3.0625 10.344ZM10.0625 10.344C8.2284 11.101 7 12.956 7 15V17C7 17.552 7.4477 18 8 18H19C19.5523 18 20 17.552 20 17V15C20 13.004 18.7648 11.194 16.9375 10.406C16.6803 10.295 16.3806 10.292 16.125 10.406C15.2402 10.803 14.3782 11 13.5 11C12.6248 11 11.7598 10.792 10.8438 10.375C10.5919 10.26 10.3183 10.238 10.0625 10.344Z" fill="#22221F"/>
</svg>
