<svg width="20" height="20" viewBox="0 0 20 20" fill="none" xmlns="http://www.w3.org/2000/svg">
<g clip-path="url(#clip0_66_1256)">
<path d="M16.6667 17.0367V20L15 18.3333L13.3333 20V17.0367C12.6979 16.6698 12.2012 16.1035 11.9204 15.4255C11.6396 14.7476 11.5903 13.996 11.7802 13.2872C11.9702 12.5784 12.3886 11.9521 12.9708 11.5054C13.5529 11.0587 14.2662 10.8166 15 10.8166C15.7338 10.8166 16.4471 11.0587 17.0292 11.5054C17.6114 11.9521 18.0298 12.5784 18.2198 13.2872C18.4097 13.996 18.3604 14.7476 18.0796 15.4255C17.7988 16.1035 17.3021 16.6698 16.6667 17.0367ZM11.6667 17.8858V18.3333H2.5V2.5C2.5 1.83696 2.76339 1.20107 3.23223 0.732233C3.70107 0.263392 4.33696 0 5 0L15 0C15.663 0 16.2989 0.263392 16.7678 0.732233C17.2366 1.20107 17.5 1.83696 17.5 2.5V9.84083C16.4302 9.2194 15.1677 9.0172 13.9573 9.27342C12.7469 9.52964 11.6747 10.226 10.9484 11.2277C10.2221 12.2293 9.89349 13.4649 10.0262 14.695C10.1589 15.9251 10.7435 17.0621 11.6667 17.8858ZM5.83333 5H14.1667V3.33333H5.83333V5ZM5.83333 8.33333H14.1667V6.66667H5.83333V8.33333ZM5.83333 11.6667H10V10H5.83333V11.6667Z" fill="black"/>
</g>
<defs>
<clipPath id="clip0_66_1256">
<rect width="20" height="20" fill="white"/>
</clipPath>
</defs>
</svg>
