<svg width="20" height="20" viewBox="0 0 20 20" fill="none" xmlns="http://www.w3.org/2000/svg">
<path d="M10 0C4.477 0 0 4.477 0 10C0 11.272 0.261994 12.561 0.718994 13.719L1.5 15.312C1.995 16.341 1.82101 17.311 1.15601 18.5C0.789006 19.158 1.247 19.951 2 19.969C3.017 19.992 4.644 19.574 5.938 19.094C7.131 19.645 8.668 20 10 20C15.523 20 20 15.523 20 10C20 4.477 15.523 0 10 0ZM6 9C6.552 9 7 9.448 7 10C7 10.552 6.552 11 6 11C5.448 11 5 10.552 5 10C5 9.448 5.448 9 6 9ZM10 9C10.552 9 11 9.448 11 10C11 10.552 10.552 11 10 11C9.448 11 9 10.552 9 10C9 9.448 9.448 9 10 9ZM14 9C14.552 9 15 9.448 15 10C15 10.552 14.552 11 14 11C13.448 11 13 10.552 13 10C13 9.448 13.448 9 14 9Z" fill="#2A343D"/>
</svg>
