<svg width="20" height="20" viewBox="0 0 20 20" fill="none" xmlns="http://www.w3.org/2000/svg">
<path d="M3.33366 16.6667H18.3337V20H3.33366C2.41283 20 1.66699 19.2542 1.66699 18.3333C1.66699 17.4125 2.41283 16.6667 3.33366 16.6667ZM5.00032 15V0H4.16699C2.78616 0 1.66699 1.11917 1.66699 2.5V15.6375C2.12449 15.2258 2.71866 14.9992 3.33366 15H5.00032ZM15.0003 8.33333C15.0003 8.79333 15.3737 9.16667 15.8337 9.16667H18.3337V7.5H15.8337C15.3737 7.5 15.0003 7.87333 15.0003 8.33333ZM15.8337 10.8333C14.4553 10.8333 13.3337 9.71167 13.3337 8.33333C13.3337 6.955 14.4553 5.83333 15.8337 5.83333H18.3337V1.66667C18.3337 0.745833 17.5878 0 16.667 0H6.66699V15H18.3337V10.8333H15.8337Z" fill="black"/>
</svg>
