<svg width="24" height="24" viewBox="0 0 24 24" fill="none" xmlns="http://www.w3.org/2000/svg">
<path d="M11.9749 2.9911C11.2599 2.9991 10.5679 3.14311 10.0369 3.39711C9.11726 3.83811 4.00586 6.39711 4.00586 6.39711C5.73326 7.26111 10.2459 9.51712 10.8179 9.80312C11.4409 10.1141 12.5709 10.1151 13.1939 9.80312L20.0679 6.4291C20.0689 6.4291 15.4739 4.09911 14.0369 3.39711C13.4289 3.10011 12.6889 2.9831 11.9749 2.9911ZM3.00586 7.99111V14.9291C3.00596 16.1381 3.82536 17.4511 4.91206 17.9911L11.0059 20.9911V11.8971C10.7289 11.8591 10.2209 11.7071 9.91206 11.5531L3.56836 8.39712C3.19816 8.21312 3.00586 7.99111 3.00586 7.99111ZM21.0059 7.99111C21.0059 7.99111 20.8139 8.21312 20.4439 8.39712L14.0999 11.5531C13.7909 11.7071 13.2829 11.8591 13.0059 11.8971V20.9911L19.0999 17.9911C20.1859 17.4511 21.0059 16.1381 21.0059 14.9291V7.99111Z" fill="#22221F"/>
</svg>
