<svg width="20" height="18" viewBox="0 0 20 18" fill="none" xmlns="http://www.w3.org/2000/svg">
<path d="M5.5 0C2.4624 0 0 2.46201 0 5.50001C0 8.68402 1.8135 11.688 4.8125 14.438C5.8361 15.376 6.9382 16.199 8.0312 16.938C8.4143 17.196 8.7726 17.43 9.0938 17.625C9.2896 17.744 9.4187 17.83 9.5 17.875C9.802 18.043 10.198 18.043 10.5 17.875C10.5813 17.83 10.7104 17.744 10.9062 17.625C11.2274 17.43 11.5857 17.196 11.9688 16.938C13.0618 16.199 14.1639 15.376 15.1875 14.438C18.1865 11.688 20 8.68402 20 5.50001C20 2.46201 17.5376 0 14.5 0C12.7748 0 11.0904 0.940014 10.0312 2.31202C8.9984 0.916014 7.3199 0 5.5 0Z" fill="#22221F"/>
</svg>
